<svg width="86" height="86" viewBox="0 0 86 86" fill="none" xmlns="http://www.w3.org/2000/svg">
<circle cx="43" cy="42.9999" r="30" transform="rotate(45 43 42.9999)" fill="white"/>
<path d="M31.3327 52.5458C30.747 53.1316 30.747 54.0813 31.3327 54.6671C31.9185 55.2529 32.8683 55.2529 33.4541 54.6671L31.3327 52.5458ZM55.1066 32.3932C55.1066 31.5648 54.435 30.8932 53.6066 30.8932L40.1066 30.8932C39.2782 30.8932 38.6066 31.5648 38.6066 32.3932C38.6066 33.2217 39.2782 33.8932 40.1066 33.8932L52.1066 33.8932L52.1066 45.8932C52.1066 46.7217 52.7782 47.3932 53.6066 47.3932C54.435 47.3932 55.1066 46.7217 55.1066 45.8932L55.1066 32.3932ZM33.4541 54.6671L54.6673 33.4539L52.5459 31.3326L31.3327 52.5458L33.4541 54.6671Z" fill="black"/>
</svg>
