<svg width="20" height="19" viewBox="0 0 20 19" fill="none" xmlns="http://www.w3.org/2000/svg">
<path d="M9.66153 0.695679C4.31318 0.695679 0 4.18694 0 8.42537C0 10.0478 0.624052 11.5513 1.68814 12.794C3.03991 14.3726 4.10643 16.3944 3.57476 18.4035C3.55759 18.4551 3.55495 18.5105 3.56714 18.5635C3.57932 18.6165 3.60586 18.6651 3.64377 18.7037C3.69906 18.7531 3.77019 18.7803 3.84391 18.7805C3.90503 18.7756 3.96301 18.7511 4.00953 18.7107L6.48226 17.0237C7.41344 16.3884 8.54809 16.1565 9.67533 16.162C15.0168 16.162 19.3369 12.6708 19.3369 8.42537C19.3369 4.17995 15.003 0.695679 9.66153 0.695679Z" fill="#392020"/>
<path d="M3.38333 8.25926C3.38224 7.67581 2.90894 7.2034 2.32548 7.2034C2.19461 7.20724 2.06536 7.17333 1.95282 7.10563C1.90286 7.07396 1.8599 7.03216 1.82665 6.98289C1.7934 6.93363 1.77057 6.87794 1.75959 6.81932C1.75624 6.78216 1.75624 6.74483 1.75959 6.70766C1.75631 6.63813 1.76966 6.56878 1.79849 6.50557C1.82732 6.44236 1.87079 6.38714 1.92522 6.34456C2.04553 6.25639 2.19075 6.20982 2.33928 6.21184H5.52069C5.6526 6.20715 5.78273 6.24374 5.89335 6.3166C5.94449 6.34687 5.98835 6.3883 6.02177 6.4378C6.05518 6.48731 6.07732 6.54369 6.08658 6.60291C6.0933 6.67244 6.09218 6.74344 6.07926 6.81209C6.07275 6.84669 6.06219 6.88051 6.04773 6.91283C6.01894 6.97716 5.97549 7.03362 5.92095 7.07768C5.80357 7.16573 5.65976 7.21016 5.51378 7.2034C4.9497 7.2034 4.49243 7.66068 4.49243 8.22476V10.8763C4.49657 10.9545 4.4846 11.0327 4.45728 11.106C4.42996 11.1794 4.38787 11.2462 4.3337 11.3022C4.28175 11.3557 4.2193 11.3977 4.15037 11.4253C4.08143 11.453 4.00753 11.4657 3.93343 11.4628C3.80383 11.4665 3.67697 11.4246 3.57458 11.3441C3.4771 11.2655 3.41094 11.1539 3.38825 11.0298C3.38143 10.9789 3.38143 10.9272 3.38825 10.8763L3.38333 8.25926Z" fill="#FEE500"/>
<path d="M6.39109 6.48414C6.42145 6.36924 6.49273 6.26974 6.59123 6.20482C6.69618 6.14464 6.81577 6.1156 6.93628 6.12104H7.19852C7.3264 6.1164 7.45303 6.14783 7.56428 6.21181C7.68216 6.29202 7.76592 6.41415 7.79892 6.55395L9.17914 10.4991C9.2004 10.5603 9.21961 10.6222 9.23672 10.6847C9.26006 10.7698 9.27356 10.8579 9.26885 10.946C9.27118 11.0141 9.2588 11.0818 9.23258 11.1445C9.20636 11.2073 9.16692 11.2634 9.11702 11.3091C9.06867 11.3593 9.01063 11.3988 8.94651 11.4252C8.88239 11.4517 8.81358 11.4644 8.74436 11.4627C8.63792 11.4734 8.53102 11.4476 8.44088 11.3893C8.35074 11.3311 8.28261 11.2438 8.24748 11.1416C8.07426 10.6283 7.59186 10.2827 7.05015 10.2827C6.50843 10.2827 6.02603 10.6283 5.85281 11.1416C5.81853 11.2458 5.74958 11.3348 5.65772 11.3934C5.47651 11.5089 5.22171 11.4941 5.04461 11.3724C5.03787 11.3678 5.03122 11.363 5.02468 11.358C4.93373 11.2848 4.87237 11.1805 4.85215 11.0648C4.84486 10.9862 4.84167 10.9065 4.84341 10.8276C4.84348 10.8246 4.84357 10.8216 4.84368 10.8186C4.84569 10.7637 4.85002 10.7081 4.86641 10.6557C4.88284 10.6031 4.90992 10.5496 4.92806 10.4991L6.39109 6.48414ZM7.53729 8.8717C7.39795 8.42173 6.76139 8.42078 6.62069 8.87032C6.52394 9.17944 6.75487 9.49368 7.07878 9.49368C7.40208 9.49368 7.63293 9.18053 7.53729 8.8717Z" fill="#FEE500"/>
<path d="M9.42687 6.70774C9.41986 6.55104 9.47444 6.39791 9.57869 6.28181C9.63169 6.22773 9.69531 6.18546 9.76544 6.15779C9.83558 6.13013 9.91066 6.11762 9.98586 6.12114C10.1151 6.11961 10.2413 6.16138 10.3447 6.23988C10.4406 6.32178 10.5042 6.43571 10.5241 6.56105C10.5309 6.60968 10.5309 6.6591 10.5241 6.70774V8.48279C10.5241 9.53092 11.3738 10.3806 12.4219 10.3806C12.5535 10.3788 12.6828 10.4151 12.7946 10.4853C12.8448 10.5166 12.888 10.5583 12.9213 10.6077C12.935 10.628 12.947 10.6494 12.957 10.6717C12.9793 10.7215 12.9878 10.8217 12.9878 10.8763C12.9911 10.9459 12.9778 11.0151 12.9489 11.0783C12.9201 11.1415 12.8766 11.1968 12.8222 11.2394C12.7019 11.3276 12.5567 11.3741 12.4081 11.3721H10.0756C9.92701 11.3817 9.77934 11.3426 9.6546 11.2604C9.54303 11.176 9.46868 11.0506 9.44757 10.9113C9.44252 10.8346 9.44252 10.7575 9.44757 10.6808L9.42687 6.70774Z" fill="#FEE500"/>
<path d="M13.1122 6.70775C13.1081 6.5515 13.1623 6.39943 13.264 6.28182C13.3674 6.18672 13.5001 6.13057 13.6397 6.12294C13.7792 6.11531 13.9171 6.15662 14.03 6.23988C14.128 6.32107 14.1941 6.43495 14.2164 6.56106C14.2198 6.60987 14.2198 6.65893 14.2164 6.70775C14.2164 7.29499 14.9471 7.5651 15.3291 7.11905L15.9623 6.3795C16.0296 6.30994 16.1011 6.24471 16.1763 6.18405C16.2472 6.14135 16.3284 6.11951 16.4109 6.12115C16.5315 6.12048 16.6495 6.15703 16.7491 6.2259C16.796 6.25787 16.8361 6.29912 16.8669 6.34711C16.8977 6.3951 16.9187 6.44886 16.9285 6.50523C16.9313 6.51905 16.9313 6.53334 16.9285 6.54716C16.9218 6.57918 16.9294 6.6126 16.9255 6.64507C16.9189 6.70138 16.9012 6.75596 16.8733 6.80551C16.8367 6.87311 16.7927 6.93627 16.7422 6.99397C16.0653 7.74484 15.973 8.85516 16.5165 9.70752L16.9589 10.4014C16.9706 10.4197 16.9768 10.441 16.9768 10.4627C16.9768 10.4865 16.9844 10.5096 16.9976 10.5293C17.0529 10.6117 17.0978 10.7008 17.1312 10.7945C17.1389 10.8162 17.1424 10.8393 17.1424 10.8624C17.1504 10.9433 17.1389 11.0249 17.1088 11.1003C17.0788 11.1757 17.0311 11.2426 16.9699 11.2953C16.8548 11.3833 16.7139 11.43 16.5696 11.428C16.4738 11.432 16.3785 11.4102 16.2936 11.3651C16.2017 11.3027 16.1259 11.2189 16.0728 11.1207L15.1471 9.61003C14.9666 9.31553 14.5558 9.2727 14.3185 9.52363C14.2263 9.62106 14.175 9.75007 14.175 9.88417V10.8414C14.1791 10.9976 14.1249 11.1497 14.0231 11.2673C13.9686 11.3212 13.9037 11.3634 13.8325 11.391C13.7613 11.4186 13.6853 11.4312 13.6091 11.428C13.4817 11.4307 13.3574 11.3887 13.2571 11.3093C13.1596 11.2306 13.0935 11.1191 13.0708 10.9951C13.064 10.9441 13.064 10.8924 13.0708 10.8414L13.1122 6.70775Z" fill="#FEE500"/>
</svg>
