<svg width="16" height="14" viewBox="0 0 16 14" fill="none" xmlns="http://www.w3.org/2000/svg">
<path fill-rule="evenodd" clip-rule="evenodd" d="M0.824219 1C0.824219 0.447715 1.27193 0 1.82422 0H14.9709C15.5232 0 15.9709 0.447715 15.9709 1C15.9709 1.55228 15.5232 2 14.9709 2H1.82422C1.27193 2 0.824219 1.55228 0.824219 1ZM0.824219 6.82536C0.824219 6.27308 1.27193 5.82536 1.82422 5.82536H14.9709C15.5232 5.82536 15.9709 6.27308 15.9709 6.82536C15.9709 7.37765 15.5232 7.82536 14.9709 7.82536H1.82422C1.27193 7.82536 0.824219 7.37765 0.824219 6.82536ZM1.82422 11.6507C1.27193 11.6507 0.824219 12.0984 0.824219 12.6507C0.824219 13.203 1.27193 13.6507 1.82422 13.6507H14.9709C15.5232 13.6507 15.9709 13.203 15.9709 12.6507C15.9709 12.0984 15.5232 11.6507 14.9709 11.6507H1.82422Z" fill="black"/>
</svg>
