<svg width="18" height="30" viewBox="0 0 18 30" fill="none" xmlns="http://www.w3.org/2000/svg">
<path d="M2.37277 0.0201416C1.86154 0.0817585 1.47588 0.263809 1.09321 0.619505C0.868983 0.826761 0.797232 0.916386 0.686616 1.12924C0.608886 1.26928 0.522186 1.48494 0.49229 1.60537C0.441466 1.81543 0.438477 2.32517 0.438477 15.0154C0.438477 27.5824 0.441466 28.2154 0.49229 28.4031C0.522186 28.5095 0.605896 28.7195 0.683626 28.8652C0.800222 29.0892 0.860015 29.1677 1.09321 29.3833C1.32042 29.5962 1.41011 29.6606 1.64928 29.7698C2.19638 30.0219 1.49382 29.9995 8.94398 29.9995C16.3941 29.9995 15.6916 30.0219 16.2387 29.7698C16.4778 29.6606 16.5675 29.5962 16.7947 29.3833C17.0279 29.1677 17.0877 29.0892 17.2043 28.8652C17.2821 28.7195 17.3658 28.5095 17.3957 28.4031C17.4465 28.2154 17.4495 27.5824 17.4495 15.0014C17.4495 2.4204 17.4465 1.78742 17.3957 1.59977C17.3658 1.49054 17.2821 1.28329 17.2043 1.13765C17.0877 0.913586 17.0279 0.835163 16.7947 0.619505C16.4868 0.331026 16.1998 0.171383 15.7992 0.0649548C15.6444 0.0240479 15.4849 0.00330353 15.3248 0.00323486L9.06356 0.000537872C5.48796 -0.00226402 2.4774 0.00613785 2.37277 0.0201416ZM10.4029 1.98348C10.4567 2.03389 10.4478 2.24675 10.391 2.29716C10.3491 2.33637 10.1787 2.34197 8.94398 2.34197C7.70926 2.34197 7.53885 2.33637 7.49699 2.29716C7.44019 2.24675 7.43122 2.03389 7.48504 1.98348C7.53586 1.93586 10.3521 1.93586 10.4029 1.98348ZM15.9397 15.0014V20.6723C15.9397 23.4337 13.7011 25.6723 10.9397 25.6723H8.94398H6.94824C4.18681 25.6723 1.94824 23.4337 1.94824 20.6723V15.0014V9.33051C1.94824 6.56909 4.18682 4.33051 6.94824 4.33051H8.94398H10.9397C13.7011 4.33051 15.9397 6.56909 15.9397 9.33051V15.0014ZM9.15325 26.5994C9.73922 26.6862 10.1966 27.1175 10.2953 27.6721C10.4059 28.3022 9.95746 28.938 9.28778 29.1032C8.51048 29.2909 7.73318 28.8148 7.59565 28.0642C7.47308 27.3948 7.99028 26.7114 8.70481 26.5994C8.93202 26.5658 8.93501 26.5658 9.15325 26.5994Z" fill="black"/>
</svg>
