<svg width="180" height="180" viewBox="0 0 154 180" fill="none" xmlns="http://www.w3.org/2000/svg">
<circle cx="90" cy="90" r="89.5" stroke="black"/>
<circle cx="152.476" cy="152.476" r="15.2913" fill="#878BE5"/>
<path fill-rule="evenodd" clip-rule="evenodd" d="M153.913 145.048C153.913 144.496 153.465 144.048 152.913 144.048C152.361 144.048 151.913 144.496 151.913 145.048V151.476H145.049C144.497 151.476 144.049 151.923 144.049 152.476C144.049 153.028 144.497 153.476 145.049 153.476H151.913V160.777C151.913 161.329 152.361 161.777 152.913 161.777C153.465 161.777 153.913 161.329 153.913 160.777V153.476H160.777C161.329 153.476 161.777 153.028 161.777 152.476C161.777 151.923 161.329 151.476 160.777 151.476H153.913V145.048Z" fill="white"/>
</svg>
