<svg width="60" height="60" viewBox="0 0 60 60" fill="none" xmlns="http://www.w3.org/2000/svg">
<path fill-rule="evenodd" clip-rule="evenodd" d="M1.81802 51.818C0.0606602 53.5754 0.0606602 56.4246 1.81802 58.182C3.57538 59.9393 6.42462 59.9393 8.18198 58.182L30 36.364L51.818 58.182C53.5754 59.9393 56.4246 59.9393 58.182 58.182C59.9393 56.4246 59.9393 53.5754 58.182 51.818L36.364 30L58.182 8.18198C59.9393 6.42462 59.9393 3.57537 58.182 1.81801C56.4246 0.0606557 53.5754 0.0606546 51.818 1.81801L30 23.636L8.18198 1.81802C6.42462 0.0606602 3.57538 0.0606602 1.81802 1.81802C0.0606602 3.57538 0.0606602 6.42462 1.81802 8.18198L23.636 30L1.81802 51.818Z" fill="#303030"/>
</svg>
