<svg width="271" height="294" viewBox="0 0 271 294" fill="none" xmlns="http://www.w3.org/2000/svg">
<g filter="url(#filter0_d_769_226)">
<path d="M206.542 143.288C213.816 140.083 216.741 133.717 220.623 127.917C219.54 126.93 218.305 126.175 217.615 125.09C216.667 123.595 215.327 121.733 215.562 120.234C216.346 115.196 213.674 110.866 212.845 106.21C212.394 103.666 209.11 101.448 206.803 99.4013C204.4 97.2672 201.448 95.7139 199.063 93.5617C193.996 88.9959 193.014 82.4631 196.53 78.576C200.317 74.3877 207.748 74.3042 212.965 78.6196C215.264 80.525 217.186 82.8623 219.928 85.6714C220.981 82.2671 222.212 79.3599 222.742 76.3367C223.589 71.4987 223.522 66.4757 224.702 61.7358C225.608 58.0955 227.4 54.4661 229.605 51.3812C232.02 48.0059 235.908 46.6848 240.181 47.9696C244.227 49.1854 246.123 52.4337 246.108 56.1647C246.089 60.9845 245.204 65.8043 244.675 70.7584C249.078 70.5733 252.523 72.8706 253.709 77.8538C261.266 78.8155 264.192 81.4287 265.301 88.8507C266.711 98.3016 265.14 107.331 260.102 115.614C257.027 120.673 252.814 124.484 246.705 125.907C246.078 126.052 245.253 126.364 244.988 126.847C241.846 132.505 236.673 133.477 231.199 132.813C228.773 136.798 226.732 140.754 224.116 144.311C219.951 149.973 214.271 153.707 207.303 155.602C206.326 155.867 205.079 156.93 204.852 157.834C199.799 178.057 187.816 192.977 168.936 202.704C168.69 202.831 168.499 203.067 168.134 203.386C174.332 214.18 181.117 224.509 190.734 232.817C196.798 226.48 197.589 226.179 202.654 228.578C202.773 227.26 202.863 226.084 202.993 224.912C203.721 218.405 203.833 211.759 205.303 205.411C210.979 180.913 238.998 178.423 253.568 191.417C263.782 200.526 267.562 212.028 266.637 225.093C265.771 237.328 262.379 249.065 257.102 260.157C248.996 277.204 228.605 285.548 210.323 279.581C202.396 276.993 196.903 271.949 194.701 263.859C194.507 263.144 193.876 262.182 193.238 261.993C187.532 260.302 184.912 254.27 185.528 249.018C185.748 247.12 185.188 246.06 183.722 244.899C171.791 235.459 163.696 223.119 156.412 210.209C155.419 208.449 154.602 207.734 152.34 208.224C148.396 209.081 144.328 209.4 139.917 209.999C140.488 211.291 141.074 212.569 141.619 213.861C144.22 220.012 146.739 226.197 149.471 232.294C149.93 233.314 151.157 234.214 152.251 234.719C154.565 235.786 157.166 236.297 159.39 237.491C165.521 240.783 167.055 245.345 164.353 251.657C171.582 257.939 171.817 265.347 167.525 273.429C167.999 273.745 168.372 274.043 168.787 274.264C171.186 275.553 171.97 277.581 171.63 280.115C171.298 282.601 169.757 284.361 167.369 284.767C163.383 285.446 159.304 286.067 155.277 285.994C138.521 285.7 121.769 285.178 105.016 284.651C99.3663 284.473 93.7236 284.067 88.081 283.715C85.9053 283.581 83.7147 283.45 81.5801 283.058C78.9491 282.575 77.0496 281.087 76.5309 278.387C76.0457 275.861 77.587 274.449 79.7776 273.487C74.8888 265.296 74.9373 257.38 81.0837 250.002C87.7452 242.006 99.426 240.587 108.155 246.452C112.596 249.439 121.03 248.485 124.564 244.583C124.889 244.224 125.314 243.839 125.4 243.411C126.404 238.366 129.878 235.68 134.983 234.268C134.185 232.283 133.506 230.505 132.759 228.755C131.625 226.081 130.475 223.413 129.277 220.767C127.557 216.975 126.602 212.409 123.791 209.654C121.157 207.074 116.529 206.417 112.775 204.918C99.4334 199.586 88.8908 190.981 81.0203 179.251C80.4232 178.362 79.8448 177.462 79.2551 176.572C79.2029 176.496 79.1059 176.449 78.5311 175.988C76.4749 181.283 74.4895 186.397 72.5452 191.398C74.176 192.763 75.5941 193.816 76.8443 195.028C79.3857 197.492 80.1433 200.559 79.1469 203.825C78.6319 205.517 79.2215 206.286 80.2814 207.502C87.6817 215.991 90.7008 225.808 88.4094 236.78C87.3458 241.861 84.2148 245.614 78.6132 246.997C77.6765 247.229 76.8779 248.641 76.3517 249.668C73.5901 255.094 70.0896 257.431 64.7978 257.137C60.2449 256.883 57.3751 254.332 55.4756 250.23C54.8038 250.72 54.2888 251.112 53.7589 251.486C47.4819 255.892 39.6636 254.03 36.2153 247.236C35.5623 245.948 35.1107 245.142 33.2597 245.218C26.5908 245.49 22.1238 241.752 20.8288 235.19C17.9254 220.455 26.8632 203.858 41.4027 197.205C43.235 196.367 44.2874 195.362 44.9629 193.424C46.5153 188.959 50.8891 186.248 55.7891 186.277C56.9646 186.285 58.1401 186.372 59.312 186.423C61.5996 180.862 63.4096 175.197 66.1861 170.025C70.071 162.788 71.2988 155.7 70.7614 147.316C69.6567 130.019 70.5001 112.605 70.5188 95.2384C70.5375 81.2581 70.5188 67.2778 69.9366 53.1124C69.5858 53.7983 69.1455 54.4516 68.8954 55.1702C65.7345 64.3053 59.715 71.2229 51.6504 76.6778C43.4179 82.2489 35.566 88.2628 28.8747 95.634C20.2466 105.139 16.0221 116.303 15.0742 128.799C14.9585 130.338 14.9026 131.902 14.5406 133.394C14.3465 134.189 13.6598 135.299 13.003 135.448C12.2865 135.611 10.9692 135.042 10.5698 134.407C9.08082 132.033 7.56195 129.605 6.59166 127.01C2.15445 115.131 3.87112 103.434 8.30086 91.9611C13.6897 78.0098 21.5266 65.6809 33.7374 56.2699C42.2684 49.6972 47.9596 41.1137 52.0833 31.3906C55.4868 23.3661 59.1925 15.4831 65.5964 9.10997C69.7575 4.96886 74.8702 2.4646 80.3336 0.729765C88.1258 -1.74546 95.7612 2.27224 98.3176 9.81044C98.6124 10.6779 98.5228 11.6832 98.5266 12.6232C98.5564 37.6114 98.5788 62.6032 98.6049 87.5913C98.6049 88.0632 98.6908 88.5314 98.7766 89.3988C121.496 75.3822 145.186 72.8634 169.152 84.7387C193.197 96.6539 205.034 116.75 206.538 143.295L206.542 143.288ZM72.993 41.2952C73.3214 41.4803 73.6536 41.6654 73.982 41.8468C74.0342 42.5981 74.135 43.3458 74.135 44.097C74.1425 75.168 74.1238 106.239 74.1611 137.31C74.1648 142.123 74.023 146.982 74.6164 151.74C78.5498 183.142 106.811 206.649 139.745 206.112C171.97 205.586 199.787 180.822 202.28 149.574C204.426 122.662 193.167 101.637 168.865 88.7673C144.649 75.9447 120.739 78.507 98.5005 94.5198C97.4406 95.282 96.3919 96.0587 94.9626 97.1039C94.9626 95.5143 94.9626 94.4726 94.9626 93.431C94.9813 67.1834 95.0037 40.9395 95.0149 14.6919C95.0149 8.53653 93.3952 6.63837 87.1966 5.47697C86.5174 5.34995 85.8232 5.28099 85.1328 5.24107C76.0942 4.72207 69.6381 9.24062 65.0665 16.0747C61.2003 21.8563 57.9983 28.1351 55.1845 34.4829C50.7249 44.5435 44.4292 53.1269 35.6891 59.9937C25.878 67.6988 19.0935 77.5235 14.1114 88.6584C9.93916 97.9822 7.08427 107.546 8.52477 117.853C8.90542 120.593 9.77869 123.272 10.4243 125.976C10.693 125.928 10.9654 125.881 11.2341 125.834C11.3349 125.199 11.4618 124.567 11.5364 123.929C13.1486 110.115 19.392 98.454 29.6659 89.0213C35.7712 83.4139 42.4438 78.3365 49.2172 73.4913C56.4683 68.3049 62.0847 62.1241 65.0404 53.762C65.8092 51.5844 66.7347 49.3923 67.9923 47.4578C69.4254 45.2584 71.31 43.3385 73.0005 41.2988L72.993 41.2952ZM58.5096 198.309C54.9568 198.309 52.0646 197.939 49.3142 198.381C42.9253 199.412 37.6409 202.682 33.3642 207.306C26.087 215.171 22.5529 224.28 24.542 234.969C25.1055 237.996 26.7289 240.464 29.9271 241.291C31.446 241.683 33.6217 241.93 34.6815 241.168C35.984 240.228 36.3049 238.246 34.8122 236.559C34.4352 236.13 34.8943 235.005 34.9726 234.2C35.6742 234.359 36.4169 234.425 37.0737 234.689C39.0926 235.51 41.0854 236.395 43.0708 237.288C43.6418 237.546 44.1568 237.927 44.6942 238.25C44.2202 238.802 43.8396 239.673 43.2499 239.836C41.955 240.195 40.5555 240.199 39.1971 240.348C37.9992 244.38 39.8166 248.093 43.7948 249.748C47.773 251.406 52.0684 249.57 54.6359 245.077C54.2888 244.645 53.7701 244.238 53.6022 243.727C53.3335 242.895 53.2962 241.992 53.1618 241.117C53.9604 241.404 54.8113 241.596 55.5428 241.999C56.8116 242.703 57.9386 243.669 59.2485 244.275C60.3084 244.765 61.5436 244.884 62.7042 245.167L62.7266 245.98C61.4354 246.391 60.1442 246.801 58.6589 247.269C59.0992 250.27 60.6032 252.452 63.6633 253.384C66.5518 254.263 69.9553 253.312 71.4443 250.593C73.0453 247.672 74.5716 244.449 74.9709 241.222C75.6651 235.6 75.4561 229.877 75.6464 224.197C75.6875 223.032 75.8218 221.871 75.9151 220.709C76.3293 220.695 76.7436 220.68 77.1578 220.666C80.2515 227.805 79.0014 235.415 79.1656 243.222C80.9457 241.923 82.6885 240.544 83.7632 238.787C86.0472 235.052 86.0807 230.904 85.2971 226.712C83.1773 215.363 78.3819 206.155 65.6076 203.259C64.8127 203.078 64.0813 202.624 62.5773 201.978C67.858 200.446 71.7503 202.45 75.8666 203.942C76.7585 201.383 76.348 199.318 74.4783 197.695C69.1305 193.053 62.7565 190.542 55.6958 189.852C52.3781 189.529 49.889 191.515 48.5119 194.904C51.8295 195.398 55.3897 195.235 58.5059 198.301L58.5096 198.309ZM256.102 201.749C253.59 197.028 248.69 192.585 245.134 191.482C232.135 187.446 221.675 194.255 220.544 207.814C220.137 212.685 220.526 217.639 220.779 222.542C221.138 229.427 221.227 236.239 218.204 242.703C216.197 246.997 218.115 252.546 222.668 254.339C228.344 256.575 234.147 258.567 240.025 260.233C245.563 261.804 251.03 259.275 253.728 254.215C255.09 251.66 255.848 248.804 257.188 246.238C259.796 241.23 257.945 236.94 254.803 233.158C252.929 230.9 250.269 229.18 247.735 227.551C245.656 226.215 243.241 225.369 240.976 224.306C241.047 224.074 241.118 223.841 241.189 223.605C243.88 224.306 246.593 224.937 249.257 225.718C253.933 227.093 257.613 229.83 260.233 234.112C263.744 225.79 259.367 220.266 254.265 217.312C251.646 215.795 248.727 214.757 245.925 213.548C244.749 213.04 243.525 212.63 242.316 212.202C241.144 211.785 239.957 211.403 238.778 211.004C247.115 211.534 255.116 212.924 261.979 218.23C261.628 215.882 261.24 213.603 260.319 211.541C257.094 204.326 250.437 201.673 243.26 199.822C240.659 199.151 238.039 198.537 235.427 197.899C242.753 197.213 249.739 197.957 256.109 201.749H256.102ZM116.678 263.739C116.339 263.844 116.003 263.953 115.663 264.058C114.656 261.823 113.749 259.54 112.626 257.362C109.401 251.112 104.229 247.247 97.0114 246.913C90.4732 246.612 85.4575 249.711 81.8749 255.047C80.2142 257.518 80.2366 259.765 81.9272 262.262C87.5884 270.646 96.0299 274.605 105.807 274.896C124.045 275.436 142.309 275.146 160.558 275.157C161.357 275.157 162.424 274.914 162.913 274.387C167.887 268.983 167.593 262.519 162.2 257.46C159.86 255.264 157.244 253.805 153.781 253.736C151.631 253.693 149.116 253.867 146.896 251.265C148.556 251.178 149.493 251.174 150.422 251.072C152.978 250.797 155.58 250.684 158.072 250.14C162.439 249.182 163.42 245.788 160.248 242.699C157.584 240.104 154.247 238.729 150.568 238.232C146.257 244.761 141.999 244.863 136.958 238.704C136.648 238.326 136.028 237.981 135.547 237.97C132.905 237.912 129.531 240.928 129.128 243.61C128.762 246.028 130.292 247.962 133.457 249.022C134.3 249.305 135.181 249.461 136.036 249.719C137.058 250.027 138.066 250.379 139.081 250.713C139.029 251.029 138.976 251.345 138.924 251.657C136.446 251.657 133.957 251.784 131.49 251.628C127.568 251.381 123.65 250.637 119.739 250.68C116.305 250.717 114.682 253.493 115.439 256.709C115.984 259.021 116.279 261.391 116.682 263.732L116.678 263.739ZM251.444 105.005C248.007 105.604 244.633 105.281 242.286 101.855C242.032 101.485 240.853 101.416 240.245 101.619C232.509 104.207 229.019 97.877 229.665 92.6616C230.441 86.4082 232.755 80.7863 236.729 75.7306C238.752 73.1574 240.476 70.2829 241.853 67.3322C243.689 63.3944 244.238 59.148 243.006 54.898C241.689 50.3395 237.274 48.7172 233.505 51.6897C231.523 53.2503 229.545 55.5622 228.937 57.8777C227.474 63.4379 226.713 69.1796 225.881 74.8813C225.261 79.1277 224.41 83.2107 221.865 86.8546C221.358 87.5841 221.503 88.9306 221.723 89.9141C222.138 91.7615 222.832 93.5508 223.407 95.3618C223.067 95.4889 222.727 95.6123 222.391 95.7393C221.929 94.9699 221.522 94.1605 220.988 93.4383C218.051 89.4605 215.271 85.352 212.062 81.592C209.905 79.066 206.788 77.8429 203.262 78.2348C198.694 78.7466 196.093 82.4195 197.832 86.5243C198.772 88.7455 200.448 90.8469 202.277 92.4946C204.807 94.7739 207.841 96.5123 210.569 98.5956C214.435 101.543 216.771 105.306 216.719 110.242C216.682 113.81 218.809 115.962 221.891 117.33C223.597 118.085 225.448 118.524 227.213 119.16C228.12 119.486 228.986 119.925 229.87 120.31C229.751 120.684 229.631 121.054 229.512 121.428C225.899 120.836 222.287 120.245 218.633 119.646C217.745 122.321 221.593 126.095 228.613 128.995C234.147 131.282 239.297 130.255 241.409 126.426C238.222 125.489 234.695 125.115 233.027 121.566C234.009 121.471 234.871 121.66 235.61 122.063C238.808 123.794 242.163 124.132 245.686 123.337C250.731 122.201 254.348 119.141 257.049 115.044C261.531 108.25 263.368 100.712 262.823 92.7088C262.636 89.9722 262.106 87.0869 260.942 84.6262C258.811 80.133 254.269 79.585 250.821 83.1853C247.052 87.1195 244.94 91.9248 244.466 97.2201C244.331 98.7117 245.41 100.806 246.637 101.797C248.362 103.183 250.75 102.729 252.329 101.133C253.597 99.8513 254.426 98.1455 255.415 96.6103C255.84 95.9461 256.172 95.2275 256.919 93.8484C258.74 97.9278 256.072 100.399 255.501 103.212C254.889 106.214 254.392 109.237 253.844 112.253L253.187 112.405C252.616 109.977 252.041 107.546 251.444 105.001V105.005ZM221.682 278.02C228.557 277.454 235.539 275.429 241.111 271.665C241.842 271.172 242.719 269.938 242.547 269.296C241.861 266.73 240.502 264.799 237.491 263.877C231.572 262.066 225.668 260.062 220.022 257.576C215.271 255.482 210.882 255.533 206.367 257.703C205.609 258.066 204.777 258.614 204.374 259.3C201.392 264.341 204.169 272.903 209.744 274.961C213.573 276.373 217.693 277.03 221.682 278.024V278.02ZM203.363 238.693C203.083 238.631 202.807 238.569 202.527 238.508C202.168 236.472 202.038 234.363 201.4 232.414C200.414 229.405 198.108 228.915 196.138 231.409C191.738 236.972 189.17 243.313 189.107 250.394C189.081 253.54 190.458 256.252 193.503 257.769C194.596 258.313 196.134 259.006 196.556 257.021C197.705 251.591 201.28 247.701 205.307 244.238C211.367 239.023 213.282 232.748 212.282 225.021C210.763 213.298 211.547 201.902 220.018 192.215C218.995 192.669 218.145 193.246 217.368 193.914C213.357 197.369 210.871 201.797 209.86 206.791C208.229 214.822 207.136 222.956 205.647 231.017C205.165 233.622 204.139 236.138 203.363 238.693ZM83.6811 277.737C84.1066 279.871 85.562 280.478 87.7078 280.539C102.37 280.942 117.029 281.505 131.696 281.846C139.917 282.035 148.146 281.947 156.367 281.835C157.266 281.824 158.151 280.822 159.039 280.282C158.211 279.465 157.472 278.525 156.52 277.883C156.039 277.556 155.173 277.741 154.479 277.741C130.908 277.737 107.338 277.737 83.6811 277.737ZM244.928 73.455C243.779 74.1482 241.913 74.9067 240.536 76.1697C235.378 80.8988 233.113 87.0107 232.482 93.7141C232.359 95.0315 232.774 96.9079 233.695 97.6774C234.848 98.6464 236.785 99.14 238.371 99.111C240.137 99.0747 241.424 98.1564 241.767 95.8953C242.719 89.6456 245.361 84.118 250.332 79.8064C250.806 79.3926 251.287 78.4091 251.101 77.9481C250.134 75.5854 248.444 73.9159 244.928 73.455ZM200.22 257.772C203.62 254.19 206.486 250.8 209.748 247.824C213.689 244.224 216.473 239.988 216.719 234.824C217.074 227.344 216.745 219.831 216.622 212.333C216.611 211.636 216.002 210.946 215.674 210.253C215.215 210.961 214.383 211.661 214.357 212.383C214.241 215.842 213.786 219.417 214.476 222.749C216.693 233.466 213.058 241.749 204.617 248.594C202.564 250.259 201.176 252.778 199.784 255.076C199.392 255.725 200.071 256.985 200.22 257.772Z" fill="#30338A"/>
<path d="M184.766 148.918C186.189 150.885 189.941 150.536 188.931 154.076C188.588 154.036 188.231 154.105 188.071 153.963C181.145 147.835 169.785 149.445 162.669 154.411C161.719 155.076 160.825 155.904 160.136 156.824C156.567 161.589 154.685 162.276 148.177 161.204C149.421 162.756 150.803 164.224 151.861 165.889C152.841 167.426 154.25 169.244 154.104 170.821C153.769 174.514 152.811 178.193 151.705 181.758C151.291 183.092 149.939 184.324 148.721 185.215C146.169 187.076 143.859 186.207 143.225 183.179C141.892 176.79 142.663 170.869 147.558 166.38C147.163 164.053 146.728 162.003 146.493 159.928C146.266 157.929 147.406 157.5 149.052 158.314C152.014 159.779 154.756 159.928 157.111 157.296C159.305 154.843 159.518 150.612 157.685 147.483C156.053 144.695 153.02 142.99 150.006 143.699C147.998 144.171 146.169 145.36 144.421 146.156C145.807 143.016 148.982 141.336 152.8 141.893C157.673 142.601 160.363 146.094 161.354 153.324C162.327 152.706 163.165 152.172 164.119 151.561C155.587 140.406 154.816 127.972 157.066 115.006C157.278 113.778 157.647 112.557 158.076 111.379C161.533 101.82 172.267 99.6352 178.872 107.519C181.521 110.677 183.346 114.832 184.442 118.823C187.176 128.768 186.871 138.901 184.759 148.922L184.766 148.918ZM182.59 148.373C184.922 136.473 184.989 124.966 180.537 113.742C179.025 109.929 176.346 106.948 172.263 105.553C170.843 105.069 169.245 105.08 168.124 104.92C169.86 108.849 171.458 112.419 173.015 116.002C173.645 117.449 173.235 118.31 171.726 119.212C166.66 122.236 165.546 127.808 169.219 132.362C170.851 134.383 173.205 135.852 175.757 138.014C175.59 140.74 175.374 144.241 175.154 147.792C177.65 147.988 179.904 148.162 182.594 148.373H182.59Z" fill="#30338A"/>
<path d="M105.147 158.829C107.417 156.319 109.688 153.81 112.042 151.217C103.778 140.525 103.019 128.208 105.256 115.362C105.406 114.51 105.598 113.654 105.865 112.831C107.406 108.094 109.831 103.996 115.452 103.22C121.159 102.433 125.58 104.932 128.795 109.327C133.051 115.148 134.201 121.992 134.468 128.829C134.701 134.853 134.01 140.924 133.517 146.955C133.378 148.671 133.604 149.556 135.209 150.647C137.514 152.21 139.465 154.35 141.27 156.479C142.014 157.357 141.988 158.844 141.826 160.421C137.972 153.585 132.307 149.737 124.4 150.129C116.941 150.495 110.436 153.168 106.109 159.547C105.789 159.312 105.47 159.072 105.15 158.836L105.147 158.829ZM131.024 148.536C133.472 137.087 133.367 125.949 129.34 115.08C128.374 112.472 126.415 110.049 124.404 108.007C122.264 105.831 119.339 104.823 116.482 105.334C118.448 109.61 120.388 113.821 122.276 117.927C116.952 121.202 114.937 124.012 115.437 127.73C116.091 132.6 119.366 135.52 124.178 137.366C123.926 140.83 123.671 144.337 123.404 147.963C125.874 148.148 128.231 148.326 131.021 148.536H131.024Z" fill="#30338A"/>
<path d="M153.17 187.052C153.143 190.669 150.995 191.85 148.209 192.265C144.033 192.889 139.335 190.393 137.523 186.633C136.847 185.232 136.334 183.752 135.749 182.31C135.96 182.153 136.175 181.992 136.387 181.835C137.451 183.21 138.599 184.533 139.57 185.976C143.028 191.11 148.665 191.693 153.17 187.056V187.052Z" fill="#30338A"/>
<path d="M242.091 111.979C238.323 115.4 229.523 113.005 228.346 108.579C228.241 108.178 228.312 107.527 228.575 107.285C228.839 107.047 229.568 106.991 229.884 107.188C231.806 108.375 233.532 109.974 235.585 110.811C237.503 111.592 239.745 111.592 242.091 111.975V111.979Z" fill="#30338A"/>
</g>
<defs>
<filter id="filter0_d_769_226" x="0" y="0" width="270.771" height="294" filterUnits="userSpaceOnUse" color-interpolation-filters="sRGB">
<feFlood flood-opacity="0" result="BackgroundImageFix"/>
<feColorMatrix in="SourceAlpha" type="matrix" values="0 0 0 0 0 0 0 0 0 0 0 0 0 0 0 0 0 0 127 0" result="hardAlpha"/>
<feOffset dy="4"/>
<feGaussianBlur stdDeviation="2"/>
<feComposite in2="hardAlpha" operator="out"/>
<feColorMatrix type="matrix" values="0 0 0 0 0 0 0 0 0 0 0 0 0 0 0 0 0 0 0.25 0"/>
<feBlend mode="normal" in2="BackgroundImageFix" result="effect1_dropShadow_769_226"/>
<feBlend mode="normal" in="SourceGraphic" in2="effect1_dropShadow_769_226" result="shape"/>
</filter>
</defs>
</svg>
