<svg width="15" height="15" viewBox="0 0 15 15" fill="none" xmlns="http://www.w3.org/2000/svg">
<g clip-path="url(#clip0_41_38)">
<path d="M13.6339 6.1309H8.86479V1.3658C8.86479 0.611537 8.25623 0 7.50197 0C6.74771 0 6.13947 0.611537 6.13947 1.36613V6.1342H1.3681C0.613835 6.1342 0.000646717 6.74574 0.000977099 7.50033C0.000646717 7.8773 0.152953 8.22287 0.399748 8.46967C0.646874 8.71713 0.987828 8.8734 1.36446 8.8734H6.13947V13.6349C6.13947 14.0122 6.28914 14.3538 6.53626 14.6002C6.78339 14.8474 7.12335 15.0003 7.50065 15.0003C8.25458 15.0003 8.86479 14.3888 8.86479 13.6349V8.87307H13.6339C14.3881 8.87307 14.9997 8.25624 14.9993 7.50198C14.999 6.74805 14.3875 6.1309 13.6339 6.1309Z" fill="black"/>
</g>
<defs>
<clipPath id="clip0_41_38">
<rect width="15" height="15" fill="white"/>
</clipPath>
</defs>
</svg>
