<svg width="13" height="13" viewBox="0 0 13 13" fill="none" xmlns="http://www.w3.org/2000/svg">
<path fill-rule="evenodd" clip-rule="evenodd" d="M8.455 7.39958L12.5138 11.4583L11.4583 12.5138L7.39958 8.455C6.64167 9.00042 5.72792 9.33333 4.72917 9.33333C2.18625 9.33333 0.125 7.27208 0.125 4.72917C0.125 2.18625 2.18625 0.125 4.72917 0.125C7.27208 0.125 9.33333 2.18625 9.33333 4.72917C9.33333 5.72792 9.00042 6.64167 8.455 7.39958ZM4.72917 1.54167C2.96542 1.54167 1.54167 2.96542 1.54167 4.72917C1.54167 6.49292 2.96542 7.91667 4.72917 7.91667C6.49292 7.91667 7.91667 6.49292 7.91667 4.72917C7.91667 2.96542 6.49292 1.54167 4.72917 1.54167Z" fill="#989898"/>
</svg>
