<svg width="31" height="31" viewBox="0 0 31 31" fill="none" xmlns="http://www.w3.org/2000/svg">
<g id="Group 14">
<circle id="Ellipse 4" cx="15.4758" cy="15.4757" r="15.2913" fill="#878BE5"/>
<path id="Union" fill-rule="evenodd" clip-rule="evenodd" d="M16.9131 8.04851C16.9131 7.49622 16.4654 7.04851 15.9131 7.04851C15.3608 7.04851 14.9131 7.49622 14.9131 8.04851V14.4757H8.04883C7.49654 14.4757 7.04883 14.9234 7.04883 15.4757C7.04883 16.028 7.49654 16.4757 8.04883 16.4757H14.9131V23.7767C14.9131 24.3289 15.3608 24.7767 15.9131 24.7767C16.4654 24.7767 16.9131 24.3289 16.9131 23.7767V16.4757H23.777C24.3293 16.4757 24.777 16.028 24.777 15.4757C24.777 14.9234 24.3293 14.4757 23.777 14.4757H16.9131V8.04851Z" fill="white"/>
</g>
</svg>
